{
  "source": "C:\\Users\\Peter\\Desktop\\stuff\\MIUN\\quantitative_research\\video_compression\\videos\\HEVC_CLASS_B\\ParkScene_1920x1080_24.y4m",
  "output": "C:\\Users\\Peter\\Desktop\\stuff\\MIUN\\quantitative_research\\video_compression\\compressed_videos\\HEVC_CLASS_B\\vp9\\1\\ParkScene_1920x1080_24_vp9.webm",
  "codec": "vp9",
  "ok": "Input #0, yuv4mpegpipe, from 'C:\\Users\\Peter\\Desktop\\stuff\\MIUN\\quantitative_research\\video_compression\\videos\\HEVC_CLASS_B\\ParkScene_1920x1080_24.y4m':\n  Duration: 00:00:10.00, start: 0.000000, bitrate: 597198 kb/s\n  Stream #0:0: Video: rawvideo (I420 / 0x30323449), yuv420p(progressive), 1920x1080, 24 fps, 24 tbr, 24 tbn\n[out#0/webm @ 000001f765499a00] Codec AVOption b:a (set bitrate (in bits/s)) has not been used for any stream. The most likely reason is either wrong type (e.g. a video option with no video streams) or that it is a private option of some decoder which was not actually used for any stream.\nStream mapping:\n  Stream #0:0 -> #0:0 (rawvideo (native) -> vp9 (libvpx-vp9))\nPress [q] to stop, [?] for help\n[libvpx-vp9 @ 000001f76549ce00] v1.15.2-100-g40561f514\nOutput #0, webm, to 'C:\\Users\\Peter\\Desktop\\stuff\\MIUN\\quantitative_research\\video_compression\\compressed_videos\\HEVC_CLASS_B\\vp9\\1\\ParkScene_1920x1080_24_vp9.webm':\n  Metadata:\n    encoder         : Lavf62.3.100\n  Stream #0:0: Video: vp9, yuv420p(tv, progressive), 1920x1080, q=2-31, 1000 kb/s, 24 fps, 1k tbn\n    Metadata:\n      encoder         : Lavc62.11.100 libvpx-vp9\n    Side data:\n      cpb: bitrate max/min/avg: 0/0/0 buffer size: 1000000 vbv_delay: N/A\nframe=    0 fps=0.0 q=0.0 size=       0KiB time=N/A bitrate=N/A speed=N/A elapsed=0:00:00.51    \nframe=    4 fps=3.9 q=56.0 size=       0KiB time=00:00:00.16 bitrate=  23.1kbits/s speed=0.161x elapsed=0:00:01.03    \nframe=    8 fps=5.2 q=53.0 size=       0KiB time=00:00:00.33 bitrate=  11.6kbits/s speed=0.215x elapsed=0:00:01.55    \nframe=   11 fps=5.3 q=45.0 size=       0KiB time=00:00:00.45 bitrate=   8.4kbits/s speed=0.223x elapsed=0:00:02.05    \nframe=   14 fps=5.4 q=51.0 size=       0KiB time=00:00:00.58 bitrate=   6.6kbits/s speed=0.226x elapsed=0:00:02.57    \nframe=   17 fps=5.5 q=51.0 size=       0KiB time=00:00:00.70 bitrate=   5.4kbits/s speed=0.229x elapsed=0:00:03.09    \nframe=   20 fps=5.5 q=52.0 size=       0KiB time=00:00:00.83 bitrate=   4.6kbits/s speed=0.231x elapsed=0:00:03.60    \nframe=   22 fps=5.3 q=52.0 size=       0KiB time=00:00:00.91 bitrate=   4.2kbits/s speed=0.221x elapsed=0:00:04.14    \nframe=   25 fps=5.3 q=50.0 size=       0KiB time=00:00:01.04 bitrate=   3.7kbits/s speed=0.223x elapsed=0:00:04.67    \nframe=   27 fps=5.2 q=51.0 size=       0KiB time=00:00:01.12 bitrate=   3.4kbits/s speed=0.216x elapsed=0:00:05.20    \nframe=   30 fps=5.2 q=52.0 size=       0KiB time=00:00:01.25 bitrate=   3.1kbits/s speed=0.218x elapsed=0:00:05.72    \nframe=   33 fps=5.3 q=49.0 size=       0KiB time=00:00:01.37 bitrate=   2.8kbits/s speed=0.221x elapsed=0:00:06.23    \nframe=   36 fps=5.3 q=51.0 size=       0KiB time=00:00:01.50 bitrate=   2.6kbits/s speed=0.222x elapsed=0:00:06.75    \nframe=   38 fps=5.2 q=52.0 size=       0KiB time=00:00:01.58 bitrate=   2.4kbits/s speed=0.218x elapsed=0:00:07.26    \nframe=   40 fps=5.1 q=52.0 size=       0KiB time=00:00:01.66 bitrate=   2.3kbits/s speed=0.214x elapsed=0:00:07.78    \nframe=   43 fps=5.2 q=50.0 size=       0KiB time=00:00:01.79 bitrate=   2.2kbits/s speed=0.216x elapsed=0:00:08.29    \nframe=   46 fps=5.2 q=53.0 size=       0KiB time=00:00:01.91 bitrate=   2.0kbits/s speed=0.217x elapsed=0:00:08.81    \nframe=   49 fps=5.3 q=53.0 size=       0KiB time=00:00:02.04 bitrate=   1.9kbits/s speed=0.219x elapsed=0:00:09.32    \nframe=   50 fps=5.1 q=54.0 size=       0KiB time=00:00:02.08 bitrate=   1.9kbits/s speed=0.212x elapsed=0:00:09.84    \nframe=   54 fps=5.2 q=54.0 size=       0KiB time=00:00:02.25 bitrate=   1.7kbits/s speed=0.217x elapsed=0:00:10.36    \nframe=   57 fps=5.2 q=55.0 size=       0KiB time=00:00:02.37 bitrate=   1.6kbits/s speed=0.218x elapsed=0:00:10.87    \nframe=   59 fps=5.2 q=55.0 size=       0KiB time=00:00:02.45 bitrate=   1.6kbits/s speed=0.216x elapsed=0:00:11.39    \nframe=   61 fps=5.1 q=39.0 size=       0KiB time=00:00:02.54 bitrate=   1.5kbits/s speed=0.213x elapsed=0:00:11.90    \nframe=   64 fps=5.2 q=54.0 size=       0KiB time=00:00:02.66 bitrate=   1.4kbits/s speed=0.215x elapsed=0:00:12.41    \nframe=   67 fps=5.2 q=54.0 size=       0KiB time=00:00:02.79 bitrate=   1.4kbits/s speed=0.216x elapsed=0:00:12.93    \nframe=   70 fps=5.2 q=54.0 size=       0KiB time=00:00:02.91 bitrate=   1.3kbits/s speed=0.217x elapsed=0:00:13.45    \nframe=   72 fps=5.2 q=54.0 size=       0KiB time=00:00:03.00 bitrate=   1.3kbits/s speed=0.215x elapsed=0:00:13.97    \nframe=   75 fps=5.2 q=53.0 size=       0KiB time=00:00:03.12 bitrate=   1.2kbits/s speed=0.216x elapsed=0:00:14.48    \nframe=   78 fps=5.2 q=54.0 size=       0KiB time=00:00:03.25 bitrate=   1.2kbits/s speed=0.217x elapsed=0:00:14.99    \nframe=   80 fps=5.2 q=54.0 size=       0KiB time=00:00:03.33 bitrate=   1.2kbits/s speed=0.215x elapsed=0:00:15.51    \nframe=   84 fps=5.2 q=53.0 size=       0KiB time=00:00:03.50 bitrate=   1.1kbits/s speed=0.218x elapsed=0:00:16.03    \nframe=   88 fps=5.3 q=54.0 size=       0KiB time=00:00:03.66 bitrate=   1.1kbits/s speed=0.222x elapsed=0:00:16.54    \nframe=   90 fps=5.3 q=54.0 size=       0KiB time=00:00:03.75 bitrate=   1.0kbits/s speed=0.22x elapsed=0:00:17.06    \nframe=   94 fps=5.3 q=53.0 size=       0KiB time=00:00:03.91 bitrate=   1.0kbits/s speed=0.223x elapsed=0:00:17.58    \nframe=   98 fps=5.4 q=54.0 size=       0KiB time=00:00:04.08 bitrate=   0.9kbits/s speed=0.226x elapsed=0:00:18.09    \nframe=  100 fps=5.4 q=54.0 size=       0KiB time=00:00:04.16 bitrate=   0.9kbits/s speed=0.224x elapsed=0:00:18.60    \nframe=  104 fps=5.4 q=52.0 size=       0KiB time=00:00:04.33 bitrate=   0.9kbits/s speed=0.227x elapsed=0:00:19.12    \nframe=  108 fps=5.5 q=52.0 size=       0KiB time=00:00:04.50 bitrate=   0.9kbits/s speed=0.229x elapsed=0:00:19.64    \nframe=  110 fps=5.5 q=53.0 size=       0KiB time=00:00:04.58 bitrate=   0.8kbits/s speed=0.227x elapsed=0:00:20.16    \nframe=  115 fps=5.6 q=52.0 size=       0KiB time=00:00:04.79 bitrate=   0.8kbits/s speed=0.232x elapsed=0:00:20.67    \nframe=  119 fps=5.6 q=52.0 size=       0KiB time=00:00:04.95 bitrate=   0.8kbits/s speed=0.234x elapsed=0:00:21.18    \nframe=  122 fps=5.6 q=54.0 size=       0KiB time=00:00:05.08 bitrate=   0.8kbits/s speed=0.234x elapsed=0:00:21.70    \nframe=  125 fps=5.6 q=52.0 size=     512KiB time=00:00:05.20 bitrate= 805.3kbits/s speed=0.234x elapsed=0:00:22.22    \nframe=  128 fps=5.6 q=53.0 size=     512KiB time=00:00:05.33 bitrate= 786.4kbits/s speed=0.235x elapsed=0:00:22.73    \nframe=  130 fps=5.6 q=51.0 size=     512KiB time=00:00:05.41 bitrate= 774.3kbits/s speed=0.233x elapsed=0:00:23.25    \nframe=  133 fps=5.6 q=49.0 size=     512KiB time=00:00:05.54 bitrate= 756.9kbits/s speed=0.233x elapsed=0:00:23.76    \nframe=  137 fps=5.6 q=51.0 size=     512KiB time=00:00:05.70 bitrate= 734.8kbits/s speed=0.235x elapsed=0:00:24.28    \nframe=  139 fps=5.6 q=37.0 size=     512KiB time=00:00:05.79 bitrate= 724.2kbits/s speed=0.234x elapsed=0:00:24.80    \nframe=  142 fps=5.6 q=49.0 size=     512KiB time=00:00:05.91 bitrate= 708.9kbits/s speed=0.234x elapsed=0:00:25.31    \nframe=  145 fps=5.6 q=50.0 size=     512KiB time=00:00:06.04 bitrate= 694.2kbits/s speed=0.234x elapsed=0:00:25.82    \nframe=  148 fps=5.6 q=51.0 size=     512KiB time=00:00:06.16 bitrate= 680.2kbits/s speed=0.234x elapsed=0:00:26.34    \nframe=  151 fps=5.6 q=49.0 size=     512KiB time=00:00:06.29 bitrate= 666.6kbits/s speed=0.234x elapsed=0:00:26.85    \nframe=  154 fps=5.6 q=50.0 size=     512KiB time=00:00:06.41 bitrate= 653.7kbits/s speed=0.234x elapsed=0:00:27.37    \nframe=  157 fps=5.6 q=51.0 size=     512KiB time=00:00:06.54 bitrate= 641.2kbits/s speed=0.235x elapsed=0:00:27.89    \nframe=  159 fps=5.6 q=37.0 size=     512KiB time=00:00:06.62 bitrate= 633.1kbits/s speed=0.233x elapsed=0:00:28.40    \nframe=  163 fps=5.6 q=50.0 size=     512KiB time=00:00:06.79 bitrate= 617.6kbits/s speed=0.235x elapsed=0:00:28.92    \nframe=  166 fps=5.6 q=51.0 size=     512KiB time=00:00:06.91 bitrate= 606.4kbits/s speed=0.235x elapsed=0:00:29.43    \nframe=  168 fps=5.6 q=51.0 size=     512KiB time=00:00:07.00 bitrate= 599.2kbits/s speed=0.234x elapsed=0:00:29.95    \nframe=  171 fps=5.6 q=50.0 size=     512KiB time=00:00:07.12 bitrate= 588.7kbits/s speed=0.234x elapsed=0:00:30.47    \nframe=  175 fps=5.6 q=52.0 size=     512KiB time=00:00:07.29 bitrate= 575.2kbits/s speed=0.235x elapsed=0:00:30.98    \nframe=  178 fps=5.7 q=52.0 size=     512KiB time=00:00:07.41 bitrate= 565.5kbits/s speed=0.235x elapsed=0:00:31.50    \nframe=  179 fps=5.6 q=37.0 size=     512KiB time=00:00:07.45 bitrate= 562.4kbits/s speed=0.233x elapsed=0:00:32.01    \nframe=  182 fps=5.6 q=51.0 size=     512KiB time=00:00:07.58 bitrate= 553.1kbits/s speed=0.233x elapsed=0:00:32.53    \nframe=  186 fps=5.6 q=52.0 size=     512KiB time=00:00:07.75 bitrate= 541.2kbits/s speed=0.235x elapsed=0:00:33.04    \nframe=  188 fps=5.6 q=53.0 size=     512KiB time=00:00:07.83 bitrate= 535.4kbits/s speed=0.233x elapsed=0:00:33.56    \nframe=  191 fps=5.6 q=51.0 size=     512KiB time=00:00:07.95 bitrate= 527.0kbits/s speed=0.234x elapsed=0:00:34.07    \nframe=  194 fps=5.6 q=52.0 size=     512KiB time=00:00:08.08 bitrate= 518.9kbits/s speed=0.234x elapsed=0:00:34.60    \nframe=  197 fps=5.6 q=52.0 size=     512KiB time=00:00:08.20 bitrate= 511.0kbits/s speed=0.234x elapsed=0:00:35.12    \nframe=  199 fps=5.6 q=38.0 size=     512KiB time=00:00:08.29 bitrate= 505.8kbits/s speed=0.233x elapsed=0:00:35.64    \nframe=  202 fps=5.6 q=51.0 size=     512KiB time=00:00:08.41 bitrate= 498.3kbits/s speed=0.233x elapsed=0:00:36.16    \nframe=  205 fps=5.6 q=52.0 size=     512KiB time=00:00:08.54 bitrate= 491.0kbits/s speed=0.233x elapsed=0:00:36.67    \nframe=  208 fps=5.6 q=53.0 size=     512KiB time=00:00:08.66 bitrate= 484.0kbits/s speed=0.233x elapsed=0:00:37.18    \nframe=  210 fps=5.6 q=54.0 size=     512KiB time=00:00:08.75 bitrate= 479.3kbits/s speed=0.232x elapsed=0:00:37.70    \nframe=  213 fps=5.6 q=53.0 size=     512KiB time=00:00:08.87 bitrate= 472.6kbits/s speed=0.232x elapsed=0:00:38.22    \nframe=  216 fps=5.6 q=54.0 size=     512KiB time=00:00:09.00 bitrate= 466.0kbits/s speed=0.232x elapsed=0:00:38.73    \nframe=  216 fps=5.5 q=54.0 size=     512KiB time=00:00:09.00 bitrate= 466.0kbits/s speed=0.229x elapsed=0:00:39.25    \nframe=  216 fps=5.4 q=54.0 size=     512KiB time=00:00:09.00 bitrate= 466.0kbits/s speed=0.226x elapsed=0:00:39.76    \nframe=  216 fps=5.4 q=54.0 size=     512KiB time=00:00:09.00 bitrate= 466.0kbits/s speed=0.223x elapsed=0:00:40.28    \nframe=  216 fps=5.3 q=54.0 size=     512KiB time=00:00:09.00 bitrate= 466.0kbits/s speed=0.221x elapsed=0:00:40.79    \nframe=  216 fps=5.2 q=54.0 size=     512KiB time=00:00:09.00 bitrate= 466.0kbits/s speed=0.218x elapsed=0:00:41.32    \nframe=  216 fps=5.2 q=54.0 size=     512KiB time=00:00:09.00 bitrate= 466.0kbits/s speed=0.215x elapsed=0:00:41.82    \n[out#0/webm @ 000001f765499a00] video:1327KiB audio:0KiB subtitle:0KiB other streams:0KiB global headers:0KiB muxing overhead: 0.166153%\nframe=  240 fps=5.7 q=45.0 Lsize=    1329KiB time=00:00:10.00 bitrate=1089.0kbits/s speed=0.237x elapsed=0:00:42.25    \n",
  "seconds": 42.425578594207764,
  "probe_out": {}
}